# xmcd
#
# Track frame offsets:
#	150
#	17032
#	40152
#	61076
#
# Disc length: 1089 seconds
#
# Revision: 1
# Processed by: cddbd v1.4PL0 Copyright (c) Steve Scherf et al.
# Submitted via: EasyCDDAExtractor 5.0.7
#
DISCID=27043f04
DTITLE=Tatjana - Calendar Girl
DYEAR=1900
DGENRE=
TTITLE0=Calendar Girl(Disco Version)
TTITLE1=Calendar Girl(Brasil Version)
TTITLE2=Calendar Girl(House Version)
TTITLE3=Calendar Girl(Instrumental Version)
EXTD=
EXTT0=
EXTT1=
EXTT2=
EXTT3=
PLAYORDER=
